<svg width="37" height="36" viewBox="0 0 37 36" fill="none" xmlns="http://www.w3.org/2000/svg">
<path d="M30.0778 31.6899C26.9034 34.3266 22.7854 36 18.3027 36C11.6323 36 5.77681 32.386 2.60254 27.1125L3.79092 21.725L9.05847 20.7633C10.281 24.6445 13.97 27.4922 18.3027 27.4922C20.4045 27.4922 22.3564 26.8383 23.965 25.6782L29.0268 26.4375L30.0778 31.6899Z" fill="#43BE8D"/>
<path d="M30.0776 31.6898L29.0266 26.4375L23.9648 25.6781C22.3562 26.8383 20.4043 27.4922 18.3025 27.4922V36C22.7853 36 26.9032 34.3265 30.0776 31.6898Z" fill="#43BE8D"/>
<path d="M8.6508 18C8.6508 18.9702 8.80094 19.8983 9.05832 20.7632L2.60239 27.1125C0.99377 24.4546 0 21.3327 0 18C0 14.6671 0.99377 11.5453 2.60239 8.88745L7.78379 9.76446L9.05832 15.2367C8.80094 16.1014 8.6508 17.0296 8.6508 18Z" fill="#43BE8D"/>
<path d="M36.6049 18C36.6049 23.4843 34.024 28.3992 30.0775 31.6898L23.9647 25.6781C25.2087 24.7921 26.2597 23.6109 26.946 22.2188H18.3024C17.7018 22.2188 17.23 21.7546 17.23 21.1641V14.8359C17.23 14.2452 17.7018 13.7812 18.3024 13.7812H35.2322C35.747 13.7812 36.1974 14.1398 36.2832 14.646C36.4977 15.743 36.6049 16.882 36.6049 18Z" fill="#43BE8D"/>
<path d="M26.9462 22.2188C26.2599 23.6109 25.2088 24.7921 23.9649 25.6781L30.0776 31.6898C34.0241 28.3992 36.605 23.4844 36.605 18C36.605 16.882 36.4978 15.743 36.2832 14.646C36.1975 14.1398 35.747 13.7812 35.2323 13.7812H18.3025V22.2188H26.9462Z" fill="#43BE8D"/>
<path d="M30.378 5.02727C30.3995 5.32259 30.2708 5.59687 30.0778 5.80774L25.4878 10.3007C25.1233 10.6804 24.5227 10.7226 24.0938 10.4062C22.3992 9.16172 20.4045 8.50781 18.3027 8.50781C13.97 8.50781 10.281 11.3554 9.05847 15.2367L2.60254 8.8875C5.77681 3.61406 11.6323 0 18.3027 0C22.5709 0 26.7318 1.54688 29.992 4.2468C30.2279 4.43672 30.3566 4.73196 30.378 5.02727Z" fill="#43BE8D"/>
<path d="M24.0935 10.4062C24.5225 10.7227 25.123 10.6804 25.4876 10.3007L30.0775 5.80774C30.2706 5.59687 30.3993 5.32266 30.3778 5.02727C30.3563 4.73189 30.2277 4.43672 29.9917 4.2468C26.7317 1.54688 22.5707 0 18.3025 0V8.50781C20.4044 8.50781 22.399 9.16172 24.0935 10.4062Z" fill="#43BE8D"/>
</svg>
