<svg width="24" height="24" viewBox="0 0 24 24" fill="none" xmlns="http://www.w3.org/2000/svg">
<path d="M20 9H18V7C18 5.4087 17.3679 3.88258 16.2426 2.75736C15.1174 1.63214 13.5913 1 12 1C10.4087 1 8.88258 1.63214 7.75736 2.75736C6.63214 3.88258 6 5.4087 6 7V9H4C3.73478 9 3.48043 9.10536 3.29289 9.29289C3.10536 9.48043 3 9.73478 3 10V22C3 22.2652 3.10536 22.5196 3.29289 22.7071C3.48043 22.8946 3.73478 23 4 23H20C20.2652 23 20.5196 22.8946 20.7071 22.7071C20.8946 22.5196 21 22.2652 21 22V10C21 9.73478 20.8946 9.48043 20.7071 9.29289C20.5196 9.10536 20.2652 9 20 9ZM8 7C8 5.93913 8.42143 4.92172 9.17157 4.17157C9.92172 3.42143 10.9391 3 12 3C13.0609 3 14.0783 3.42143 14.8284 4.17157C15.5786 4.92172 16 5.93913 16 7V9H8V7ZM19 21H5V11H19V21Z" fill="#43BE8D"/>
<path d="M12 13C11.4067 13 10.8266 13.1759 10.3333 13.5056C9.83994 13.8352 9.45543 14.3038 9.22836 14.8519C9.0013 15.4001 8.94189 16.0033 9.05765 16.5853C9.1734 17.1672 9.45912 17.7018 9.87868 18.1213C10.2982 18.5409 10.8328 18.8266 11.4147 18.9424C11.9967 19.0581 12.5999 18.9987 13.1481 18.7716C13.6962 18.5446 14.1648 18.1601 14.4944 17.6667C14.8241 17.1734 15 16.5933 15 16C15 15.2044 14.6839 14.4413 14.1213 13.8787C13.5587 13.3161 12.7957 13 12 13ZM12 17C11.8022 17 11.6089 16.9414 11.4444 16.8315C11.28 16.7216 11.1518 16.5654 11.0761 16.3827C11.0004 16.2 10.9806 15.9989 11.0192 15.8049C11.0578 15.6109 11.153 15.4327 11.2929 15.2929C11.4327 15.153 11.6109 15.0578 11.8049 15.0192C11.9989 14.9806 12.2 15.0004 12.3827 15.0761C12.5654 15.1518 12.7216 15.28 12.8315 15.4444C12.9414 15.6089 13 15.8022 13 16C13 16.2652 12.8946 16.5196 12.7071 16.7071C12.5196 16.8946 12.2652 17 12 17Z" fill="#43BE8D"/>
</svg>
